# xmcd
#
# Track frame offsets:
#	150
#	22291
#	46447
#	68993
#	87126
#	103342
#	119638
#	134754
#	166462
#	179831
#	192664
#
# Disc length: 2810 seconds
#
# Revision: 1
# Processed by: cddbd v1.5.2PL0 Copyright (c) Steve Scherf et al.
# Submitted via: audiograbber 1.83.01
#
DISCID=b50af80b
DTITLE=Robert Krestan and Druha Trava - Dylanovky
DYEAR=2007
DGENRE=Country
TTITLE0=Jeste neni tma (Not Dark Yet)
TTITLE1=Cim dal tiz se dejcha (A Heard Rain's A-Gonna Fall]
TTITLE2=Sbohem, Angelino (Farewell Angelina]
TTITLE3=Senore (Senor - Tales Of Yankee Power]
TTITLE4=Jak mlyn se toci svet (Simple Twist Of Fate)
TTITLE5=U Majdy na statku (Magie's Farm)
TTITLE6=Ceka nas posledni rano (One Too Many Mornings)
TTITLE7=Lily, Rosemary a Srdcovej kluk (Lily, Rosemary And The Jask Of Hearts)
TTITLE8=Zvoni zvony (Rings Them Bells)
TTITLE9=Nashville Skyline Rag
TTITLE10=Divka ze severu (Girl Of The North Country)
EXTD=
EXTT0=
EXTT1=
EXTT2=
EXTT3=
EXTT4=
EXTT5=
EXTT6=
EXTT7=
EXTT8=
EXTT9=
EXTT10=
PLAYORDER=
